dummy_motion.mot
version=1
nRows=30
nColumns=11
inDegrees=No
endheader
                time	         pelvis_tilt	           pelvis_tx	           pelvis_ty	       hip_flexion_l	       hip_flexion_r	        knee_angle_l	        knee_angle_r	       ankle_angle_l	       ankle_angle_r	    lumbar_extension	
          2.50050010	          0.00000000	          0.00000000	          0.00000000	         -0.47672471	         -0.64420976	         -0.58172912	         -0.48835123	          0.05668745	          0.27099772	         -0.10597529	
          2.50250050	          0.00000000	          0.00000000	          0.00000000	          0.86760168	         -0.25758214	         -1.32971035	         -1.05239244	         -0.02930987	          0.52124190	         -0.45819295	
          2.50450090	          0.00000000	          0.00000000	          0.00000000	         -0.86172886	         -0.18565642	         -1.34402753	         -0.52634912	          0.34951960	         -0.19496627	          0.19513227	
          2.50650130	          0.00000000	          0.00000000	          0.00000000	          0.18740332	          0.07110040	         -0.93802723	         -0.00461178	          0.20306268	         -0.38754119	         -0.22405552	
          2.50850170	          0.00000000	          0.00000000	          0.00000000	         -0.20219714	         -0.65653251	         -0.89520225	         -1.33137172	          0.40731651	          0.07172201	         -0.00329691	
          2.51050210	          0.00000000	          0.00000000	          0.00000000	         -0.59366949	          0.46690388	         -1.26266956	         -1.41712000	          0.33139852	          0.31681387	          0.47642704	
          2.51250250	          0.00000000	          0.00000000	          0.00000000	         -0.28843483	         -0.41361301	         -0.08993879	         -0.49504941	         -0.10957882	          0.42971364	         -0.26165289	
          2.51450290	          0.00000000	          0.00000000	          0.00000000	         -0.32386909	          0.73234738	         -0.10770539	         -1.09063591	          0.10704625	          0.26131761	          0.45887761	
          2.51650330	          0.00000000	          0.00000000	          0.00000000	         -0.80076378	          0.27347601	         -1.29972707	         -0.60544607	          0.31669266	          0.39535175	         -0.44686843	
          2.51850370	          0.00000000	          0.00000000	          0.00000000	          0.83282948	         -0.72424944	         -1.11190613	         -0.50898290	         -0.51626075	         -0.34323303	          0.03262983	
          2.52050410	          0.00000000	          0.00000000	          0.00000000	          0.75925150	          0.34873260	         -1.32185741	         -1.50246181	         -0.46489592	         -0.12285296	          0.51816727	
          2.52250450	          0.00000000	          0.00000000	          0.00000000	          0.55588037	          0.40109476	         -0.00705444	         -1.01751906	         -0.30825618	          0.11636266	          0.34193995	
          2.52450490	          0.00000000	          0.00000000	          0.00000000	          0.58240790	          0.74050532	         -1.39523965	         -0.54335129	         -0.05635802	          0.15712326	          0.09974673	
          2.52650530	          0.00000000	          0.00000000	          0.00000000	          0.24385783	          0.47183944	         -0.63846691	         -1.30219107	          0.05029471	         -0.14567141	          0.06295281	
          2.52850570	          0.00000000	          0.00000000	          0.00000000	          0.75771546	          0.58779552	         -0.50844632	         -0.38912740	          0.17468337	          0.13788735	          0.43023894	
          2.53050610	          0.00000000	          0.00000000	          0.00000000	          0.05847181	          0.57398387	         -1.28119750	         -0.90066640	         -0.21157068	         -0.17939945	         -0.20510261	
          2.53250650	          0.00000000	          0.00000000	          0.00000000	          0.25923604	          0.52059129	         -0.98631606	         -0.20393486	         -0.34568100	         -0.16942816	          0.21034593	
          2.53450690	          0.00000000	          0.00000000	          0.00000000	          0.20192449	         -0.53704556	         -0.60577795	         -1.44889820	         -0.26656182	          0.51352958	         -0.27274704	
          2.53650730	          0.00000000	          0.00000000	          0.00000000	         -0.12956061	         -0.61973463	         -0.73226013	         -0.48689209	         -0.12203997	          0.25076539	          0.50352089	
          2.53850770	          0.00000000	          0.00000000	          0.00000000	          0.42469573	         -0.81001033	         -1.35514038	         -1.55528448	         -0.22251058	         -0.01448818	          0.48470733	
          2.54050810	          0.00000000	          0.00000000	          0.00000000	         -0.55761579	          0.25219195	         -1.11085538	         -1.51531959	          0.30633123	         -0.25319060	         -0.07586950	
          2.54250850	          0.00000000	          0.00000000	          0.00000000	         -0.31940776	          0.69213173	         -0.71073684	         -1.22983313	          0.36931876	          0.28754507	          0.23849416	
          2.54450890	          0.00000000	          0.00000000	          0.00000000	         -0.36862862	          0.23283755	         -1.18691217	         -0.12793046	          0.08548272	         -0.24344757	         -0.41712213	
          2.54650930	          0.00000000	          0.00000000	          0.00000000	         -0.39434306	          0.81595663	         -0.13267185	         -0.99071590	          0.28355750	         -0.45923548	          0.03423053	
          2.54850970	          0.00000000	          0.00000000	          0.00000000	          0.79716646	         -0.64363025	         -0.03725433	         -0.72690203	          0.30178241	         -0.28625304	         -0.36527851	
          2.55051010	          0.00000000	          0.00000000	          0.00000000	         -0.27971530	         -0.54003652	         -0.19451376	         -0.66840800	         -0.44550610	          0.41570491	         -0.47919181	
          2.55251050	          0.00000000	          0.00000000	          0.00000000	          0.44382318	          0.24420800	         -0.52043647	         -1.16261342	         -0.31328520	          0.23307032	          0.44663726	
          2.55451090	          0.00000000	          0.00000000	          0.00000000	         -0.45174531	          0.03002380	         -0.00386892	         -0.10450771	          0.12078958	          0.26700689	          0.19865825	
          2.55651130	          0.00000000	          0.00000000	          0.00000000	         -0.10037295	         -0.11695054	         -0.91009882	         -1.28819258	         -0.25174220	         -0.08399818	         -0.13215797	
          2.55851170	          0.00000000	          0.00000000	          0.00000000	          0.53400410	          0.30876960	         -0.11063070	         -0.26327561	         -0.24358352	         -0.49706458	          0.13758945	
